<mxfile host="65bd71144e">
    <diagram id="kwumHu8r9ylj2fb_xfT_" name="Page-1">
        <mxGraphModel dx="820" dy="478" grid="1" gridSize="10" guides="1" tooltips="1" connect="1" arrows="1" fold="1" page="1" pageScale="1" pageWidth="850" pageHeight="1100" background="none" math="0" shadow="0">
            <root>
                <mxCell id="0"/>
                <mxCell id="1" parent="0"/>
                <mxCell id="13" value="" style="shape=cylinder3;whiteSpace=wrap;html=1;boundedLbl=1;backgroundOutline=1;size=15;lid=0;" parent="1" vertex="1">
                    <mxGeometry x="25" y="125" width="180" height="100" as="geometry"/>
                </mxCell>
                <mxCell id="15" value="" style="verticalLabelPosition=bottom;verticalAlign=top;html=1;shape=mxgraph.basic.rect;fillColor2=none;strokeWidth=1;size=20;indent=5;" parent="1" vertex="1">
                    <mxGeometry x="260" y="160" width="40" height="30" as="geometry"/>
                </mxCell>
                <mxCell id="19" value="" style="shape=cylinder3;whiteSpace=wrap;html=1;boundedLbl=1;backgroundOutline=1;size=15;" parent="1" vertex="1">
                    <mxGeometry x="390" y="110" width="90" height="110" as="geometry"/>
                </mxCell>
                <mxCell id="20" value="" style="verticalLabelPosition=bottom;verticalAlign=top;html=1;shape=mxgraph.basic.rect;fillColor2=none;strokeWidth=1;size=20;indent=5;" parent="1" vertex="1">
                    <mxGeometry x="550" y="160" width="40" height="30" as="geometry"/>
                </mxCell>
                <mxCell id="21" value="" style="ellipse;whiteSpace=wrap;html=1;" parent="1" vertex="1">
                    <mxGeometry x="630" y="130" width="120" height="80" as="geometry"/>
                </mxCell>
                <mxCell id="22" value="" style="verticalLabelPosition=bottom;verticalAlign=top;html=1;shape=mxgraph.basic.rect;fillColor2=none;strokeWidth=1;size=15;indent=5;" parent="1" vertex="1">
                    <mxGeometry x="770" y="160" width="40" height="30" as="geometry"/>
                </mxCell>
                <mxCell id="23" value="Hub/Web&lt;br&gt;Server" style="whiteSpace=wrap;html=1;aspect=fixed;" parent="1" vertex="1">
                    <mxGeometry x="400" y="310" width="80" height="80" as="geometry"/>
                </mxCell>
                <mxCell id="24" value="" style="shape=datastore;whiteSpace=wrap;html=1;" parent="1" vertex="1">
                    <mxGeometry x="620" y="310" width="140" height="110" as="geometry"/>
                </mxCell>
                <mxCell id="25" value="" style="verticalLabelPosition=bottom;verticalAlign=top;html=1;shape=mxgraph.basic.rect;fillColor2=none;strokeWidth=1;size=13;indent=5;" parent="1" vertex="1">
                    <mxGeometry x="790" y="350" width="40" height="30" as="geometry"/>
                </mxCell>
                <mxCell id="26" value="" style="verticalLabelPosition=bottom;verticalAlign=top;html=1;shape=mxgraph.basic.rect;fillColor2=none;strokeWidth=1;size=20;indent=5;" parent="1" vertex="1">
                    <mxGeometry x="400" y="479" width="80" height="40" as="geometry"/>
                </mxCell>
                <mxCell id="27" value="" style="verticalLabelPosition=bottom;verticalAlign=top;html=1;shape=mxgraph.basic.rect;fillColor2=none;strokeWidth=1;size=20;indent=5;" parent="1" vertex="1">
                    <mxGeometry x="400" y="519" width="80" height="40" as="geometry"/>
                </mxCell>
                <mxCell id="28" value="" style="verticalLabelPosition=bottom;verticalAlign=top;html=1;shape=mxgraph.basic.rect;fillColor2=none;strokeWidth=1;size=20;indent=5;" parent="1" vertex="1">
                    <mxGeometry x="400" y="559" width="80" height="40" as="geometry"/>
                </mxCell>
                <mxCell id="29" value="" style="verticalLabelPosition=bottom;verticalAlign=top;html=1;shape=mxgraph.basic.rect;fillColor2=none;strokeWidth=1;size=20;indent=5;" parent="1" vertex="1">
                    <mxGeometry x="425" y="439" width="30" height="40" as="geometry"/>
                </mxCell>
                <mxCell id="32" value="" style="verticalLabelPosition=bottom;verticalAlign=top;html=1;shape=mxgraph.basic.rect;fillColor2=none;strokeWidth=1;size=20;indent=5;" parent="1" vertex="1">
                    <mxGeometry x="530" y="410" width="40" height="30" as="geometry"/>
                </mxCell>
                <mxCell id="33" value="" style="verticalLabelPosition=bottom;verticalAlign=top;html=1;shape=mxgraph.basic.rect;fillColor2=none;strokeWidth=1;size=20;indent=5;" parent="1" vertex="1">
                    <mxGeometry x="101" y="380" width="70" height="40" as="geometry"/>
                </mxCell>
                <mxCell id="44" style="edgeStyle=none;html=1;" parent="1" source="34" edge="1">
                    <mxGeometry relative="1" as="geometry">
                        <mxPoint x="50" y="440" as="targetPoint"/>
                    </mxGeometry>
                </mxCell>
                <mxCell id="34" value="" style="verticalLabelPosition=bottom;verticalAlign=top;html=1;shape=mxgraph.basic.rect;fillColor2=none;strokeWidth=1;size=20;indent=5;" parent="1" vertex="1">
                    <mxGeometry x="101" y="420" width="70" height="40" as="geometry"/>
                </mxCell>
                <mxCell id="35" value="" style="verticalLabelPosition=bottom;verticalAlign=top;html=1;shape=mxgraph.basic.rect;fillColor2=none;strokeWidth=1;size=20;indent=5;" parent="1" vertex="1">
                    <mxGeometry x="101" y="460" width="70" height="40" as="geometry"/>
                </mxCell>
                <mxCell id="36" value="" style="verticalLabelPosition=bottom;verticalAlign=top;html=1;shape=mxgraph.basic.rect;fillColor2=none;strokeWidth=1;size=20;indent=5;" parent="1" vertex="1">
                    <mxGeometry x="17" y="410" width="30" height="20" as="geometry"/>
                </mxCell>
                <mxCell id="37" value="" style="verticalLabelPosition=bottom;verticalAlign=top;html=1;shape=mxgraph.basic.rect;fillColor2=none;strokeWidth=1;size=20;indent=5;" parent="1" vertex="1">
                    <mxGeometry x="17" y="430" width="30" height="40" as="geometry"/>
                </mxCell>
                <mxCell id="38" value="" style="verticalLabelPosition=bottom;verticalAlign=top;html=1;shape=mxgraph.basic.rect;fillColor2=none;strokeWidth=1;size=20;indent=5;" parent="1" vertex="1">
                    <mxGeometry x="17" y="450" width="30" height="30" as="geometry"/>
                </mxCell>
                <mxCell id="39" value="DB" style="text;html=1;align=center;verticalAlign=middle;resizable=0;points=[];autosize=1;strokeColor=none;fillColor=none;" parent="1" vertex="1">
                    <mxGeometry x="15" y="490" width="30" height="20" as="geometry"/>
                </mxCell>
                <mxCell id="45" value="Node&lt;br&gt;EndPoint" style="text;html=1;align=center;verticalAlign=middle;resizable=0;points=[];autosize=1;strokeColor=none;fillColor=none;" parent="1" vertex="1">
                    <mxGeometry x="45" y="405" width="60" height="30" as="geometry"/>
                </mxCell>
                <mxCell id="46" value="Graph" style="text;html=1;align=center;verticalAlign=middle;resizable=0;points=[];autosize=1;strokeColor=none;fillColor=none;" parent="1" vertex="1">
                    <mxGeometry x="115" y="350" width="50" height="20" as="geometry"/>
                </mxCell>
                <mxCell id="47" value="Water Level" style="text;html=1;align=center;verticalAlign=middle;resizable=0;points=[];autosize=1;strokeColor=none;fillColor=none;" parent="1" vertex="1">
                    <mxGeometry x="96" y="390" width="80" height="20" as="geometry"/>
                </mxCell>
                <mxCell id="48" value="Water Flow" style="text;html=1;align=center;verticalAlign=middle;resizable=0;points=[];autosize=1;strokeColor=none;fillColor=none;" parent="1" vertex="1">
                    <mxGeometry x="96" y="430" width="80" height="20" as="geometry"/>
                </mxCell>
                <mxCell id="49" value="STP" style="text;html=1;align=center;verticalAlign=middle;resizable=0;points=[];autosize=1;strokeColor=none;fillColor=none;" parent="1" vertex="1">
                    <mxGeometry x="115" y="470" width="40" height="20" as="geometry"/>
                </mxCell>
                <mxCell id="50" value="Node&lt;br&gt;BackEnd" style="text;html=1;align=center;verticalAlign=middle;resizable=0;points=[];autosize=1;strokeColor=none;fillColor=none;" parent="1" vertex="1">
                    <mxGeometry x="171" y="465" width="60" height="30" as="geometry"/>
                </mxCell>
                <mxCell id="51" value="React &lt;br&gt;FrontEnd" style="text;html=1;align=center;verticalAlign=middle;resizable=0;points=[];autosize=1;strokeColor=none;fillColor=none;" parent="1" vertex="1">
                    <mxGeometry x="106" y="510" width="60" height="30" as="geometry"/>
                </mxCell>
                <mxCell id="52" value="Wiras" style="text;html=1;align=center;verticalAlign=middle;resizable=0;points=[];autosize=1;strokeColor=none;fillColor=none;" parent="1" vertex="1">
                    <mxGeometry x="370" y="449" width="50" height="20" as="geometry"/>
                </mxCell>
                <mxCell id="53" value="Admin" style="text;html=1;align=center;verticalAlign=middle;resizable=0;points=[];autosize=1;strokeColor=none;fillColor=none;" parent="1" vertex="1">
                    <mxGeometry x="410" y="489" width="50" height="20" as="geometry"/>
                </mxCell>
                <mxCell id="54" value="Classroom" style="text;html=1;align=center;verticalAlign=middle;resizable=0;points=[];autosize=1;strokeColor=none;fillColor=none;" parent="1" vertex="1">
                    <mxGeometry x="405" y="529" width="70" height="20" as="geometry"/>
                </mxCell>
                <mxCell id="55" value="Hostel" style="text;html=1;align=center;verticalAlign=middle;resizable=0;points=[];autosize=1;strokeColor=none;fillColor=none;" parent="1" vertex="1">
                    <mxGeometry x="415" y="569" width="50" height="20" as="geometry"/>
                </mxCell>
                <mxCell id="56" value="One &lt;br&gt;EndPoint" style="text;html=1;align=center;verticalAlign=middle;resizable=0;points=[];autosize=1;strokeColor=none;fillColor=none;" parent="1" vertex="1">
                    <mxGeometry x="171" y="425" width="60" height="30" as="geometry"/>
                </mxCell>
                <mxCell id="58" value="" style="edgeStyle=segmentEdgeStyle;endArrow=classic;html=1;" parent="1" edge="1">
                    <mxGeometry width="50" height="50" relative="1" as="geometry">
                        <mxPoint x="171" y="400" as="sourcePoint"/>
                        <mxPoint x="221" y="350" as="targetPoint"/>
                        <Array as="points">
                            <mxPoint x="221" y="400"/>
                        </Array>
                    </mxGeometry>
                </mxCell>
                <mxCell id="59" value="Wireless" style="text;html=1;align=center;verticalAlign=middle;resizable=0;points=[];autosize=1;strokeColor=none;fillColor=none;" parent="1" vertex="1">
                    <mxGeometry x="220" y="350" width="60" height="20" as="geometry"/>
                </mxCell>
                <mxCell id="60" value="OHT&lt;br&gt;Capacity" style="text;html=1;align=center;verticalAlign=middle;resizable=0;points=[];autosize=1;strokeColor=none;fillColor=none;" parent="1" vertex="1">
                    <mxGeometry x="410" y="406" width="60" height="30" as="geometry"/>
                </mxCell>
                <mxCell id="61" value="ED5&lt;br&gt;8 Port" style="text;html=1;align=center;verticalAlign=middle;resizable=0;points=[];autosize=1;strokeColor=none;fillColor=none;" parent="1" vertex="1">
                    <mxGeometry x="525" y="410" width="50" height="30" as="geometry"/>
                </mxCell>
                <mxCell id="62" value="ED2&lt;br&gt;1 Port" style="text;html=1;align=center;verticalAlign=middle;resizable=0;points=[];autosize=1;strokeColor=none;fillColor=none;" parent="1" vertex="1">
                    <mxGeometry x="255" y="160" width="50" height="30" as="geometry"/>
                </mxCell>
                <mxCell id="63" value="ED3&lt;br&gt;1 Port" style="text;html=1;align=center;verticalAlign=middle;resizable=0;points=[];autosize=1;strokeColor=none;fillColor=none;" parent="1" vertex="1">
                    <mxGeometry x="545" y="158" width="50" height="30" as="geometry"/>
                </mxCell>
                <mxCell id="64" value="ED4&lt;br&gt;1 Port" style="text;html=1;align=center;verticalAlign=middle;resizable=0;points=[];autosize=1;strokeColor=none;fillColor=none;" parent="1" vertex="1">
                    <mxGeometry x="765" y="160" width="50" height="30" as="geometry"/>
                </mxCell>
                <mxCell id="65" value="ED1&lt;br&gt;8 Port" style="text;html=1;align=center;verticalAlign=middle;resizable=0;points=[];autosize=1;strokeColor=none;fillColor=none;" parent="1" vertex="1">
                    <mxGeometry x="785" y="350" width="50" height="30" as="geometry"/>
                </mxCell>
                <mxCell id="66" value="Kitchen" style="text;html=1;align=center;verticalAlign=middle;resizable=0;points=[];autosize=1;strokeColor=none;fillColor=none;" parent="1" vertex="1">
                    <mxGeometry x="475" y="550" width="60" height="20" as="geometry"/>
                </mxCell>
                <mxCell id="67" value="Washroom" style="text;html=1;align=center;verticalAlign=middle;resizable=0;points=[];autosize=1;strokeColor=none;fillColor=none;" parent="1" vertex="1">
                    <mxGeometry x="475" y="510" width="70" height="20" as="geometry"/>
                </mxCell>
                <mxCell id="68" value="Toilet" style="text;html=1;align=center;verticalAlign=middle;resizable=0;points=[];autosize=1;strokeColor=none;fillColor=none;" parent="1" vertex="1">
                    <mxGeometry x="480" y="479" width="40" height="20" as="geometry"/>
                </mxCell>
                <mxCell id="69" value="" style="edgeStyle=segmentEdgeStyle;endArrow=classic;html=1;exitX=1.019;exitY=0.488;exitDx=0;exitDy=0;exitPerimeter=0;" parent="1" source="26" edge="1">
                    <mxGeometry width="50" height="50" relative="1" as="geometry">
                        <mxPoint x="490" y="490" as="sourcePoint"/>
                        <mxPoint x="540" y="440" as="targetPoint"/>
                    </mxGeometry>
                </mxCell>
                <mxCell id="72" value="" style="edgeStyle=segmentEdgeStyle;endArrow=classic;html=1;entryX=0.51;entryY=1.1;entryDx=0;entryDy=0;entryPerimeter=0;exitX=1.013;exitY=0.388;exitDx=0;exitDy=0;exitPerimeter=0;" parent="1" source="27" target="61" edge="1">
                    <mxGeometry width="50" height="50" relative="1" as="geometry">
                        <mxPoint x="500" y="525" as="sourcePoint"/>
                        <mxPoint x="550" y="475" as="targetPoint"/>
                        <Array as="points">
                            <mxPoint x="551" y="526"/>
                        </Array>
                    </mxGeometry>
                </mxCell>
                <mxCell id="73" value="" style="edgeStyle=segmentEdgeStyle;endArrow=classic;html=1;entryX=0.77;entryY=1.067;entryDx=0;entryDy=0;entryPerimeter=0;exitX=1.013;exitY=0.513;exitDx=0;exitDy=0;exitPerimeter=0;" parent="1" source="28" target="61" edge="1">
                    <mxGeometry width="50" height="50" relative="1" as="geometry">
                        <mxPoint x="515" y="570" as="sourcePoint"/>
                        <mxPoint x="565" y="520" as="targetPoint"/>
                    </mxGeometry>
                </mxCell>
                <mxCell id="75" value="" style="shape=sortShape;perimeter=rhombusPerimeter;whiteSpace=wrap;html=1;" parent="1" vertex="1">
                    <mxGeometry x="460" y="165" width="10" height="20" as="geometry"/>
                </mxCell>
                <mxCell id="76" value="" style="shape=sortShape;perimeter=rhombusPerimeter;whiteSpace=wrap;html=1;" parent="1" vertex="1">
                    <mxGeometry x="720" y="160" width="10" height="20" as="geometry"/>
                </mxCell>
                <mxCell id="77" value="" style="shape=sortShape;perimeter=rhombusPerimeter;whiteSpace=wrap;html=1;" parent="1" vertex="1">
                    <mxGeometry x="173" y="169" width="10" height="20" as="geometry"/>
                </mxCell>
                <mxCell id="78" value="" style="shape=sortShape;perimeter=rhombusPerimeter;whiteSpace=wrap;html=1;" parent="1" vertex="1">
                    <mxGeometry x="710" y="370" width="10" height="20" as="geometry"/>
                </mxCell>
                <mxCell id="79" value="" style="shape=sortShape;perimeter=rhombusPerimeter;whiteSpace=wrap;html=1;" parent="1" vertex="1">
                    <mxGeometry x="690" y="370" width="10" height="20" as="geometry"/>
                </mxCell>
                <mxCell id="80" value="" style="shape=sortShape;perimeter=rhombusPerimeter;whiteSpace=wrap;html=1;" parent="1" vertex="1">
                    <mxGeometry x="670" y="370" width="10" height="20" as="geometry"/>
                </mxCell>
                <mxCell id="81" value="" style="shape=sortShape;perimeter=rhombusPerimeter;whiteSpace=wrap;html=1;" parent="1" vertex="1">
                    <mxGeometry x="730" y="370" width="10" height="20" as="geometry"/>
                </mxCell>
                <mxCell id="82" value="" style="edgeStyle=elbowEdgeStyle;elbow=vertical;endArrow=classic;html=1;exitX=0.5;exitY=0;exitDx=0;exitDy=0;entryX=0.5;entryY=0;entryDx=0;entryDy=0;entryPerimeter=0;" parent="1" source="77" target="62" edge="1">
                    <mxGeometry width="50" height="50" relative="1" as="geometry">
                        <mxPoint x="250" y="220" as="sourcePoint"/>
                        <mxPoint x="300" y="170" as="targetPoint"/>
                        <Array as="points">
                            <mxPoint x="230" y="80"/>
                        </Array>
                    </mxGeometry>
                </mxCell>
                <mxCell id="83" value="" style="edgeStyle=elbowEdgeStyle;elbow=vertical;endArrow=classic;html=1;exitX=0.45;exitY=0.983;exitDx=0;exitDy=0;exitPerimeter=0;entryX=0.25;entryY=0;entryDx=0;entryDy=0;" parent="1" source="62" target="23" edge="1">
                    <mxGeometry width="50" height="50" relative="1" as="geometry">
                        <mxPoint x="250" y="220" as="sourcePoint"/>
                        <mxPoint x="300" y="170" as="targetPoint"/>
                        <Array as="points">
                            <mxPoint x="290" y="250"/>
                            <mxPoint x="320" y="260"/>
                            <mxPoint x="290" y="270"/>
                        </Array>
                    </mxGeometry>
                </mxCell>
                <mxCell id="86" value="" style="edgeStyle=elbowEdgeStyle;elbow=vertical;endArrow=classic;html=1;exitX=0.5;exitY=0;exitDx=0;exitDy=0;entryX=0.5;entryY=0;entryDx=0;entryDy=0;entryPerimeter=0;" parent="1" edge="1">
                    <mxGeometry width="50" height="50" relative="1" as="geometry">
                        <mxPoint x="465" y="165" as="sourcePoint"/>
                        <mxPoint x="567" y="156" as="targetPoint"/>
                        <Array as="points">
                            <mxPoint x="577" y="76"/>
                        </Array>
                    </mxGeometry>
                </mxCell>
                <mxCell id="91" value="" style="edgeStyle=elbowEdgeStyle;elbow=vertical;endArrow=classic;html=1;entryX=0.5;entryY=0.033;entryDx=0;entryDy=0;entryPerimeter=0;" parent="1" target="64" edge="1">
                    <mxGeometry width="50" height="50" relative="1" as="geometry">
                        <mxPoint x="725" y="161" as="sourcePoint"/>
                        <mxPoint x="775" y="111" as="targetPoint"/>
                        <Array as="points">
                            <mxPoint x="750" y="80"/>
                        </Array>
                    </mxGeometry>
                </mxCell>
                <mxCell id="92" value="" style="edgeStyle=elbowEdgeStyle;elbow=vertical;endArrow=classic;html=1;entryX=0.7;entryY=0;entryDx=0;entryDy=0;entryPerimeter=0;exitX=0.5;exitY=0;exitDx=0;exitDy=0;" parent="1" source="80" target="65" edge="1">
                    <mxGeometry width="50" height="50" relative="1" as="geometry">
                        <mxPoint x="735" y="370" as="sourcePoint"/>
                        <mxPoint x="785" y="320" as="targetPoint"/>
                        <Array as="points">
                            <mxPoint x="740" y="250"/>
                            <mxPoint x="710" y="260"/>
                            <mxPoint x="795" y="240"/>
                        </Array>
                    </mxGeometry>
                </mxCell>
                <mxCell id="93" value="" style="edgeStyle=elbowEdgeStyle;elbow=vertical;endArrow=classic;html=1;exitX=0.5;exitY=0;exitDx=0;exitDy=0;entryX=0.46;entryY=0;entryDx=0;entryDy=0;entryPerimeter=0;" parent="1" source="79" target="65" edge="1">
                    <mxGeometry width="50" height="50" relative="1" as="geometry">
                        <mxPoint x="700" y="420" as="sourcePoint"/>
                        <mxPoint x="750" y="370" as="targetPoint"/>
                        <Array as="points">
                            <mxPoint x="750" y="260"/>
                            <mxPoint x="710" y="260"/>
                        </Array>
                    </mxGeometry>
                </mxCell>
                <mxCell id="94" value="" style="edgeStyle=elbowEdgeStyle;elbow=vertical;endArrow=classic;html=1;entryX=0.27;entryY=-0.05;entryDx=0;entryDy=0;entryPerimeter=0;exitX=0.5;exitY=0;exitDx=0;exitDy=0;" parent="1" source="78" target="65" edge="1">
                    <mxGeometry width="50" height="50" relative="1" as="geometry">
                        <mxPoint x="705" y="380" as="sourcePoint"/>
                        <mxPoint x="818" y="360" as="targetPoint"/>
                        <Array as="points">
                            <mxPoint x="760" y="270"/>
                            <mxPoint x="720" y="270"/>
                        </Array>
                    </mxGeometry>
                </mxCell>
                <mxCell id="95" value="" style="edgeStyle=elbowEdgeStyle;elbow=vertical;endArrow=classic;html=1;exitX=0.5;exitY=0;exitDx=0;exitDy=0;entryX=0.1;entryY=0;entryDx=0;entryDy=0;entryPerimeter=0;" parent="1" source="81" target="65" edge="1">
                    <mxGeometry width="50" height="50" relative="1" as="geometry">
                        <mxPoint x="715" y="390" as="sourcePoint"/>
                        <mxPoint x="828" y="370" as="targetPoint"/>
                        <Array as="points">
                            <mxPoint x="760" y="280"/>
                            <mxPoint x="770" y="280"/>
                            <mxPoint x="730" y="280"/>
                        </Array>
                    </mxGeometry>
                </mxCell>
                <mxCell id="96" value="" style="edgeStyle=elbowEdgeStyle;elbow=vertical;endArrow=classic;html=1;exitX=0.438;exitY=1.05;exitDx=0;exitDy=0;exitPerimeter=0;entryX=0.375;entryY=0;entryDx=0;entryDy=0;entryPerimeter=0;" parent="1" source="20" target="23" edge="1">
                    <mxGeometry width="50" height="50" relative="1" as="geometry">
                        <mxPoint x="380" y="320" as="sourcePoint"/>
                        <mxPoint x="430" y="270" as="targetPoint"/>
                        <Array as="points">
                            <mxPoint x="500" y="230"/>
                        </Array>
                    </mxGeometry>
                </mxCell>
                <mxCell id="97" value="" style="edgeStyle=elbowEdgeStyle;elbow=vertical;endArrow=classic;html=1;exitX=0.29;exitY=1.05;exitDx=0;exitDy=0;exitPerimeter=0;entryX=0.5;entryY=0;entryDx=0;entryDy=0;" parent="1" source="64" target="23" edge="1">
                    <mxGeometry width="50" height="50" relative="1" as="geometry">
                        <mxPoint x="605" y="290" as="sourcePoint"/>
                        <mxPoint x="455" y="270" as="targetPoint"/>
                        <Array as="points">
                            <mxPoint x="530" y="240"/>
                        </Array>
                    </mxGeometry>
                </mxCell>
                <mxCell id="98" value="" style="edgeStyle=elbowEdgeStyle;elbow=vertical;endArrow=classic;html=1;exitX=0.56;exitY=0.017;exitDx=0;exitDy=0;exitPerimeter=0;entryX=1.029;entryY=0.621;entryDx=0;entryDy=0;entryPerimeter=0;" parent="1" source="61" target="23" edge="1">
                    <mxGeometry width="50" height="50" relative="1" as="geometry">
                        <mxPoint x="600" y="420" as="sourcePoint"/>
                        <mxPoint x="500" y="360" as="targetPoint"/>
                        <Array as="points">
                            <mxPoint x="530" y="360"/>
                            <mxPoint x="510" y="330"/>
                            <mxPoint x="510" y="280"/>
                            <mxPoint x="510" y="260"/>
                        </Array>
                    </mxGeometry>
                </mxCell>
                <mxCell id="102" value="" style="edgeStyle=elbowEdgeStyle;elbow=horizontal;endArrow=classic;html=1;" parent="1" edge="1">
                    <mxGeometry width="50" height="50" relative="1" as="geometry">
                        <mxPoint x="710" y="481" as="sourcePoint"/>
                        <mxPoint x="480" y="341" as="targetPoint"/>
                        <Array as="points">
                            <mxPoint x="580" y="416"/>
                            <mxPoint x="600" y="431"/>
                            <mxPoint x="600" y="431"/>
                            <mxPoint x="600" y="391"/>
                            <mxPoint x="610" y="386"/>
                        </Array>
                    </mxGeometry>
                </mxCell>
                <mxCell id="106" value="" style="shape=sortShape;perimeter=rhombusPerimeter;whiteSpace=wrap;html=1;rotation=90;" parent="1" vertex="1">
                    <mxGeometry x="765" y="390" width="10" height="20" as="geometry"/>
                </mxCell>
                <mxCell id="107" value="" style="shape=sortShape;perimeter=rhombusPerimeter;whiteSpace=wrap;html=1;rotation=90;" parent="1" vertex="1">
                    <mxGeometry x="595" y="315" width="10" height="20" as="geometry"/>
                </mxCell>
                <mxCell id="113" value="" style="shape=partialRectangle;whiteSpace=wrap;html=1;bottom=0;right=0;fillColor=none;rotation=-180;" parent="1" vertex="1">
                    <mxGeometry x="707" y="379" width="110" height="101" as="geometry"/>
                </mxCell>
                <mxCell id="118" value="" style="edgeStyle=elbowEdgeStyle;elbow=vertical;endArrow=classic;html=1;entryX=0.543;entryY=1.028;entryDx=0;entryDy=0;entryPerimeter=0;" parent="1" target="65" edge="1">
                    <mxGeometry width="50" height="50" relative="1" as="geometry">
                        <mxPoint x="600" y="350" as="sourcePoint"/>
                        <mxPoint x="690" y="440" as="targetPoint"/>
                        <Array as="points">
                            <mxPoint x="710" y="440"/>
                            <mxPoint x="605" y="430"/>
                        </Array>
                    </mxGeometry>
                </mxCell>
                <mxCell id="121" value="" style="edgeStyle=segmentEdgeStyle;endArrow=classic;html=1;" parent="1" edge="1">
                    <mxGeometry width="50" height="50" relative="1" as="geometry">
                        <mxPoint x="780" y="400" as="sourcePoint"/>
                        <mxPoint x="800" y="380" as="targetPoint"/>
                        <Array as="points">
                            <mxPoint x="800" y="400"/>
                        </Array>
                    </mxGeometry>
                </mxCell>
                <mxCell id="122" value="Wired&amp;nbsp;&lt;br&gt;Sensor" style="text;html=1;align=center;verticalAlign=middle;resizable=0;points=[];autosize=1;strokeColor=none;fillColor=none;" parent="1" vertex="1">
                    <mxGeometry x="133" y="188" width="50" height="30" as="geometry"/>
                </mxCell>
                <mxCell id="123" value="Dam" style="text;html=1;align=center;verticalAlign=middle;resizable=0;points=[];autosize=1;strokeColor=none;fillColor=none;" parent="1" vertex="1">
                    <mxGeometry x="30" y="168" width="40" height="20" as="geometry"/>
                </mxCell>
                <mxCell id="125" value="Well" style="text;html=1;align=center;verticalAlign=middle;resizable=0;points=[];autosize=1;strokeColor=none;fillColor=none;" parent="1" vertex="1">
                    <mxGeometry x="391" y="149" width="40" height="20" as="geometry"/>
                </mxCell>
                <mxCell id="126" value="Pond" style="text;html=1;align=center;verticalAlign=middle;resizable=0;points=[];autosize=1;strokeColor=none;fillColor=none;" parent="1" vertex="1">
                    <mxGeometry x="650" y="138" width="40" height="20" as="geometry"/>
                </mxCell>
                <mxCell id="128" value="RS485" style="text;html=1;align=center;verticalAlign=middle;resizable=0;points=[];autosize=1;strokeColor=none;fillColor=none;" parent="1" vertex="1">
                    <mxGeometry x="195" y="60" width="50" height="20" as="geometry"/>
                </mxCell>
                <mxCell id="129" value="RS485" style="text;html=1;align=center;verticalAlign=middle;resizable=0;points=[];autosize=1;strokeColor=none;fillColor=none;" parent="1" vertex="1">
                    <mxGeometry x="485" y="50" width="50" height="20" as="geometry"/>
                </mxCell>
                <mxCell id="130" value="RS485" style="text;html=1;align=center;verticalAlign=middle;resizable=0;points=[];autosize=1;strokeColor=none;fillColor=none;" parent="1" vertex="1">
                    <mxGeometry x="730" y="60" width="50" height="20" as="geometry"/>
                </mxCell>
                <mxCell id="131" value="RS485" style="text;html=1;align=center;verticalAlign=middle;resizable=0;points=[];autosize=1;strokeColor=none;fillColor=none;" parent="1" vertex="1">
                    <mxGeometry x="785" y="225" width="50" height="20" as="geometry"/>
                </mxCell>
                <mxCell id="132" value="RS485" style="text;html=1;align=center;verticalAlign=middle;resizable=0;points=[];autosize=1;strokeColor=none;fillColor=none;" parent="1" vertex="1">
                    <mxGeometry x="525" y="580" width="50" height="20" as="geometry"/>
                </mxCell>
                <mxCell id="134" value="" style="edgeStyle=segmentEdgeStyle;endArrow=classic;html=1;" parent="1" edge="1">
                    <mxGeometry width="50" height="50" relative="1" as="geometry">
                        <mxPoint x="480" y="330" as="sourcePoint"/>
                        <mxPoint x="530" y="280" as="targetPoint"/>
                    </mxGeometry>
                </mxCell>
                <mxCell id="135" value="Wireless" style="text;html=1;align=center;verticalAlign=middle;resizable=0;points=[];autosize=1;strokeColor=none;fillColor=none;" parent="1" vertex="1">
                    <mxGeometry x="500" y="260" width="60" height="20" as="geometry"/>
                </mxCell>
                <mxCell id="136" value="Inlet&lt;br&gt;Flow Meter" style="text;html=1;align=center;verticalAlign=middle;resizable=0;points=[];autosize=1;strokeColor=none;fillColor=none;" parent="1" vertex="1">
                    <mxGeometry x="565" y="285" width="70" height="30" as="geometry"/>
                </mxCell>
                <mxCell id="145" value="Outlet&lt;br&gt;Flow Meter" style="text;html=1;align=center;verticalAlign=middle;resizable=0;points=[];autosize=1;strokeColor=none;fillColor=none;" parent="1" vertex="1">
                    <mxGeometry x="747" y="406" width="70" height="30" as="geometry"/>
                </mxCell>
                <mxCell id="146" value="&lt;font style=&quot;font-size: 8px&quot;&gt;PH&lt;/font&gt;" style="text;html=1;align=center;verticalAlign=middle;resizable=0;points=[];autosize=1;strokeColor=none;fillColor=none;" parent="1" vertex="1">
                    <mxGeometry x="680" y="385" width="30" height="20" as="geometry"/>
                </mxCell>
                <mxCell id="147" value="&lt;font style=&quot;font-size: 8px&quot;&gt;Turbidity&lt;/font&gt;" style="text;html=1;align=center;verticalAlign=middle;resizable=0;points=[];autosize=1;strokeColor=none;fillColor=none;" parent="1" vertex="1">
                    <mxGeometry x="710" y="386" width="50" height="20" as="geometry"/>
                </mxCell>
                <mxCell id="148" value="&lt;font style=&quot;font-size: 8px&quot;&gt;TSS/&lt;br&gt;COD/&lt;br&gt;BOD&lt;/font&gt;" style="text;html=1;align=center;verticalAlign=middle;resizable=0;points=[];autosize=1;strokeColor=none;fillColor=none;" parent="1" vertex="1">
                    <mxGeometry x="640" y="371" width="40" height="50" as="geometry"/>
                </mxCell>
                <mxCell id="149" value="&lt;font style=&quot;font-size: 8px&quot;&gt;TDS&lt;/font&gt;" style="text;html=1;align=center;verticalAlign=middle;resizable=0;points=[];autosize=1;strokeColor=none;fillColor=none;" parent="1" vertex="1">
                    <mxGeometry x="700" y="390" width="30" height="20" as="geometry"/>
                </mxCell>
                <mxCell id="150" value="Wired&amp;nbsp;&lt;br&gt;Sensor" style="text;html=1;align=center;verticalAlign=middle;resizable=0;points=[];autosize=1;strokeColor=none;fillColor=none;" parent="1" vertex="1">
                    <mxGeometry x="405" y="180" width="50" height="30" as="geometry"/>
                </mxCell>
                <mxCell id="151" value="Wired&amp;nbsp;&lt;br&gt;Sensor" style="text;html=1;align=center;verticalAlign=middle;resizable=0;points=[];autosize=1;strokeColor=none;fillColor=none;" parent="1" vertex="1">
                    <mxGeometry x="670" y="169" width="50" height="30" as="geometry"/>
                </mxCell>
            </root>
        </mxGraphModel>
    </diagram>
</mxfile>